<svg width="118" height="31" viewBox="0 0 118 31" fill="none" xmlns="http://www.w3.org/2000/svg">
<rect width="30.2433" height="30.2433" rx="15.1216" fill="#027D8F"/>
<path d="M14.8071 6.33287C14.9976 6.20589 15.2457 6.20589 15.4362 6.33287L22.2409 10.8694C22.5015 11.0431 22.5719 11.3952 22.3982 11.6557C22.2245 11.9163 21.8724 11.9867 21.6118 11.813L15.1217 7.48622L8.63148 11.813C8.3709 11.9867 8.01883 11.9163 7.84511 11.6557C7.67139 11.3952 7.7418 11.0431 8.00238 10.8694L14.8071 6.33287Z" fill="white"/>
<path fill-rule="evenodd" clip-rule="evenodd" d="M21.3593 12.3487V19.8471H21.9263C22.2395 19.8471 22.4934 20.101 22.4934 20.4142C22.4934 20.7273 22.2395 20.9812 21.9263 20.9812H8.31687C8.00369 20.9812 7.74981 20.7273 7.74981 20.4142C7.74981 20.101 8.00369 19.8471 8.31687 19.8471H8.88393V12.3487C8.88393 12.0694 9.08722 11.8317 9.36309 11.7885C11.2397 11.494 13.163 11.3412 15.1216 11.3412C17.0802 11.3412 19.0035 11.494 20.8801 11.7885C21.156 11.8317 21.3593 12.0694 21.3593 12.3487ZM15.6887 14.1765C15.6887 13.8633 15.4348 13.6094 15.1216 13.6094C14.8084 13.6094 14.5545 13.8633 14.5545 14.1765V19.28C14.5545 19.5932 14.8084 19.8471 15.1216 19.8471C15.4348 19.8471 15.6887 19.5932 15.6887 19.28V14.1765ZM17.9569 13.6094C18.2701 13.6094 18.524 13.8633 18.524 14.1765V19.28C18.524 19.5932 18.2701 19.8471 17.9569 19.8471C17.6437 19.8471 17.3898 19.5932 17.3898 19.28V14.1765C17.3898 13.8633 17.6437 13.6094 17.9569 13.6094ZM12.8534 14.1765C12.8534 13.8633 12.5995 13.6094 12.2863 13.6094C11.9731 13.6094 11.7192 13.8633 11.7192 14.1765V19.28C11.7192 19.5932 11.9731 19.8471 12.2863 19.8471C12.5995 19.8471 12.8534 19.5932 12.8534 19.28V14.1765Z" fill="white"/>
<path d="M15.1216 10.4906C15.5914 10.4906 15.9722 10.1098 15.9722 9.64C15.9722 9.17023 15.5914 8.78941 15.1216 8.78941C14.6518 8.78941 14.271 9.17023 14.271 9.64C14.271 10.1098 14.6518 10.4906 15.1216 10.4906Z" fill="white"/>
<path d="M52.3264 8.92457V22.1216H49.5362V8.92457H52.3264ZM57.3156 16.3995V22.1216H54.5705V12.2238H57.1867V13.9701H57.3027C57.5218 13.3945 57.8891 12.9391 58.4046 12.604C58.9201 12.2646 59.5452 12.095 60.2798 12.095C60.9671 12.095 61.5664 12.2453 62.0776 12.546C62.5888 12.8467 62.9862 13.2763 63.2697 13.8348C63.5533 14.389 63.695 15.0506 63.695 15.8195V22.1216H60.95V16.3093C60.9542 15.7035 60.7996 15.231 60.486 14.8916C60.1724 14.5479 59.7407 14.3761 59.1908 14.3761C58.8213 14.3761 58.4948 14.4556 58.2113 14.6145C57.9321 14.7735 57.713 15.0054 57.554 15.3105C57.3994 15.6112 57.3199 15.9742 57.3156 16.3995ZM71.1232 12.2238V14.2859H65.1626V12.2238H71.1232ZM66.5159 9.85249H69.2609V19.0801C69.2609 19.3336 69.2996 19.5312 69.3769 19.673C69.4543 19.8104 69.5617 19.9071 69.6991 19.9629C69.8409 20.0188 70.0041 20.0467 70.1889 20.0467C70.3177 20.0467 70.4466 20.036 70.5755 20.0145C70.7044 19.9887 70.8032 19.9694 70.8719 19.9565L71.3037 21.9992C71.1662 22.0422 70.9729 22.0916 70.7237 22.1474C70.4745 22.2075 70.1717 22.2441 69.8151 22.257C69.1535 22.2827 68.5736 22.1947 68.0753 21.9928C67.5812 21.7908 67.1968 21.4772 66.9218 21.0519C66.6469 20.6267 66.5116 20.0897 66.5159 19.441V9.85249ZM77.3158 22.3149C76.2977 22.3149 75.4213 22.1087 74.6867 21.6963C73.9564 21.2796 73.3936 20.6911 72.9984 19.9307C72.6032 19.166 72.4056 18.2617 72.4056 17.2178C72.4056 16.1997 72.6032 15.3062 72.9984 14.5372C73.3936 13.7682 73.9499 13.1689 74.6674 12.7393C75.3891 12.3098 76.2354 12.095 77.2062 12.095C77.8592 12.095 78.4671 12.2002 79.0299 12.4107C79.5969 12.6169 80.091 12.9284 80.512 13.3451C80.9373 13.7618 81.268 14.2859 81.5043 14.9174C81.7406 15.5446 81.8587 16.2792 81.8587 17.1212V17.8751H73.501V16.1739H79.2747C79.2747 15.7787 79.1888 15.4286 79.017 15.1236C78.8451 14.8186 78.6067 14.5801 78.3017 14.4083C78.001 14.2322 77.6509 14.1441 77.2514 14.1441C76.8346 14.1441 76.4652 14.2408 76.143 14.4341C75.8251 14.6231 75.5759 14.8787 75.3955 15.2009C75.2151 15.5188 75.1227 15.8732 75.1184 16.2641V17.8816C75.1184 18.3713 75.2086 18.7944 75.3891 19.151C75.5738 19.5076 75.8337 19.7825 76.1688 19.9758C76.5039 20.1691 76.9012 20.2658 77.3609 20.2658C77.6659 20.2658 77.9451 20.2228 78.1986 20.1369C78.4521 20.051 78.669 19.9221 78.8494 19.7503C79.0299 19.5784 79.1673 19.3679 79.2618 19.1188L81.8007 19.2863C81.6719 19.8963 81.4077 20.429 81.0081 20.8844C80.6129 21.3355 80.1017 21.6877 79.4745 21.9412C78.8516 22.1904 78.132 22.3149 77.3158 22.3149ZM83.6501 22.1216V12.2238H86.3114V13.9508H86.4145C86.595 13.3365 86.8978 12.8725 87.3231 12.5589C87.7484 12.241 88.2382 12.0821 88.7923 12.0821C88.9298 12.0821 89.078 12.0907 89.237 12.1078C89.3959 12.125 89.5355 12.1487 89.6558 12.1787V14.6145C89.5269 14.5759 89.3487 14.5415 89.121 14.5114C88.8933 14.4813 88.6849 14.4663 88.4959 14.4663C88.0921 14.4663 87.7312 14.5544 87.4133 14.7305C87.0997 14.9023 86.8506 15.1429 86.6659 15.4522C86.4854 15.7615 86.3952 16.1181 86.3952 16.5219V22.1216H83.6501ZM91.0751 22.1216V12.2238H93.8202V22.1216H91.0751ZM92.4541 10.9479C92.046 10.9479 91.6958 10.8126 91.4037 10.542C91.1159 10.267 90.972 9.93841 90.972 9.55607C90.972 9.17803 91.1159 8.85369 91.4037 8.58305C91.6958 8.30811 92.046 8.17064 92.4541 8.17064C92.8622 8.17064 93.2101 8.30811 93.498 8.58305C93.7901 8.85369 93.9362 9.17803 93.9362 9.55607C93.9362 9.93841 93.7901 10.267 93.498 10.542C93.2101 10.8126 92.8622 10.9479 92.4541 10.9479ZM102.366 17.9073V12.2238H105.111V22.1216H102.476V20.3238H102.373C102.149 20.9037 101.778 21.3698 101.258 21.7221C100.743 22.0744 100.113 22.2505 99.37 22.2505C98.7084 22.2505 98.1263 22.1002 97.6237 21.7994C97.121 21.4987 96.728 21.0713 96.4444 20.5171C96.1652 19.9629 96.0234 19.2992 96.0191 18.5259V12.2238H98.7642V18.0362C98.7685 18.6205 98.9253 19.0823 99.2346 19.4216C99.5439 19.761 99.9585 19.9307 100.478 19.9307C100.809 19.9307 101.118 19.8555 101.406 19.7052C101.694 19.5505 101.926 19.3228 102.102 19.0221C102.283 18.7214 102.371 18.3498 102.366 17.9073ZM107.256 22.1216V20.4849L112.101 14.4856V14.4148H107.423V12.2238H115.407V14.0088L110.858 19.8598V19.9307H115.575V22.1216H107.256Z" fill="#1E1E1E"/>
</svg>
